<svg width="162" height="162" viewBox="0 0 162 162" fill="none" xmlns="http://www.w3.org/2000/svg">
<g opacity="0.9" clip-path="url(#clip0)">
<path d="M122.351 96.315C111.091 96.315 101.931 105.475 101.931 116.735C101.931 127.995 111.091 137.155 122.351 137.155C133.613 137.155 142.771 127.995 142.771 116.735C142.771 105.475 133.611 96.315 122.351 96.315ZM122.351 126.945C116.72 126.945 112.141 122.366 112.141 116.735C112.141 111.104 116.72 106.525 122.351 106.525C127.982 106.525 132.561 111.104 132.561 116.735C132.561 122.366 127.982 126.945 122.351 126.945Z" fill="#096B00"/>
<path d="M52.582 96.315C41.322 96.315 32.1617 105.475 32.1617 116.735C32.1617 127.995 41.322 137.155 52.582 137.155C63.8419 137.155 73.0022 127.995 73.0022 116.735C73.0022 105.475 63.8419 96.315 52.582 96.315ZM52.582 126.945C46.9512 126.945 42.3719 122.366 42.3719 116.735C42.3719 111.104 46.9512 106.525 52.582 106.525C58.2112 106.525 62.7921 111.104 62.7921 116.735C62.7921 122.366 58.2127 126.945 52.582 126.945Z" fill="#096B00"/>
<path d="M136.102 37.8659C135.234 36.1421 133.47 35.0547 131.54 35.0547H104.653V45.2648H128.392L142.293 72.9136L151.417 68.3257L136.102 37.8659Z" fill="#096B00"/>
<path d="M107.036 111.801H68.4077V122.011H107.036V111.801Z" fill="#096B00"/>
<path d="M37.2666 111.801H19.5694C16.7496 111.801 14.4645 114.086 14.4645 116.905C14.4645 119.725 16.7499 122.01 19.5694 122.01H37.267C40.0868 122.01 42.3719 119.725 42.3719 116.905C42.3719 114.086 40.0864 111.801 37.2666 111.801Z" fill="#096B00"/>
<path d="M160.928 80.5915L150.887 67.6587C149.922 66.4131 148.433 65.6847 146.855 65.6847H109.758V29.9494C109.758 27.1296 107.473 24.8445 104.654 24.8445H19.5694C16.7496 24.8445 14.4645 27.1299 14.4645 29.9494C14.4645 32.7689 16.7499 35.0543 19.5694 35.0543H99.5484V70.7896C99.5484 73.6094 101.834 75.8945 104.653 75.8945H144.355L151.79 85.4715V111.8H137.666C134.846 111.8 132.561 114.085 132.561 116.905C132.561 119.725 134.846 122.01 137.666 122.01H156.895C159.715 122.01 162 119.724 162 116.905V83.7227C162 82.5893 161.622 81.4866 160.928 80.5915Z" fill="#096B00"/>
<path d="M36.9265 85.935H13.4432C10.6233 85.935 8.33826 88.2204 8.33826 91.0399C8.33826 93.8597 10.6237 96.1448 13.4432 96.1448H36.9262C39.746 96.1448 42.0311 93.8594 42.0311 91.0399C42.0314 88.2204 39.746 85.935 36.9265 85.935Z" fill="#096B00"/>
<path d="M48.668 65.8549H5.1049C2.2854 65.8549 0 68.1403 0 70.9601C0 73.7799 2.2854 76.065 5.1049 76.065H48.668C51.4878 76.065 53.7729 73.7796 53.7729 70.9601C53.7729 68.1406 51.4878 65.8549 48.668 65.8549Z" fill="#096B00"/>
<path d="M57.0063 45.7751H13.4432C10.6233 45.7751 8.33826 48.0605 8.33826 50.88C8.33826 53.6998 10.6237 55.9849 13.4432 55.9849H57.0063C59.8261 55.9849 62.1112 53.6995 62.1112 50.88C62.1115 48.0605 59.8261 45.7751 57.0063 45.7751Z" fill="#096B00"/>
</g>
<defs>
<clipPath id="clip0">
<rect width="162" height="162" fill="white"/>
</clipPath>
</defs>
</svg>
