<svg width="204" height="219" viewBox="0 0 204 219" fill="none" xmlns="http://www.w3.org/2000/svg">
<path d="M156.953 208.039C157.046 209.159 157.514 215.599 159.988 215.832C162.462 216.065 175.817 209.768 176.193 208.039C176.401 206.943 176.239 205.808 175.732 204.814L163.357 206.026" fill="black"/>
<path d="M65.8303 202.327C64.8618 203.572 62.3716 206.936 62.3716 208.088C62.3716 209.24 65.5213 216.378 67.7925 216.816C70.0637 217.253 79.4461 216.952 79.4461 215.475C79.4461 212.551 74.2488 212.551 73.7553 212.085C73.2619 211.62 71.7124 206.016 71.7124 205.088C71.7124 204.159 65.8303 202.327 65.8303 202.327Z" fill="black"/>
<path d="M180.38 117.82C169.096 98.6453 161.639 85.4383 150.739 65.9986C143.776 53.568 135.429 38.5913 125.507 28.133L124.333 29.997L122.526 31.6859L120.134 32.8541L120.065 35.0476L120.134 36.9992L120.439 37.4162L122.878 38.7088L124.907 40.4346L127.744 44.2387L129.869 48.5381L131.329 52.4873L132.717 57.372L133.658 61.5355L134.691 67.5032L135.3 72.3832L135.86 81.6687L135.466 85.9428L122.989 93.7146L123.22 120.497L105.449 130.493L102.73 117.101L106.906 101.477L101.803 90.9635L100.978 90.2976L100.251 88.0165L99.7442 80.9337L99.5713 73.9247L100.065 64.7083L100.756 59.9434L101.568 56.19L102.816 51.8122L104.409 47.3192L106.41 43.8907L107.925 41.8931L110.284 39.6673L111.105 39.3079L111.192 28.6583L110.183 26.61L106.546 24.9971L107.997 19.3083L112.288 17.9259C110.65 17.123 108.938 16.4802 107.176 16.0065C88.7755 11.1357 66.2939 27.0662 46.0928 44.8815C25.9401 62.6715 8.0724 82.3646 2.18338 105.622C-3.70564 128.88 2.44625 155.734 19.0895 169.029C35.6913 182.369 62.826 182.148 86.3636 189.915C109.901 197.726 129.881 213.523 151.881 214.401C153.978 214.483 156.078 214.434 158.169 214.256L156.861 208.316L164.47 205.924L175.732 204.821L176.278 206.735L176.172 208.118L175.28 209.212L169.709 212.032C185.416 207.291 199.092 195.952 202.329 181.667C206.816 162.096 191.665 136.953 180.38 117.82Z" fill="#F8F8F8"/>
<path d="M101.328 90.6755C98.8704 99.7375 92.4233 142.317 92.4233 143.776C92.4233 145.352 65.0627 201.081 65.1688 202.238C65.2748 203.394 72.0078 205.708 72.0078 205.708C72.0078 205.708 110.1 156.172 112.525 153.962C114.852 151.84 136.033 99.4979 134.995 86.2977C130.939 88.5051 105.043 92.2999 101.328 90.6755Z" fill="#096B00"/>
<path d="M134.684 86.4498C129.888 88.6249 106.069 92.1041 101.6 90.7815C101.6 90.8806 101.584 90.9751 101.58 91.0765C101.061 105.627 126.178 147.497 127.218 149.575C128.258 151.654 155.974 206.698 156.502 208.602C157.885 209.122 163.603 207.738 164.47 205.659L134.684 86.4498Z" fill="#096B00"/>
<path d="M120.134 37.4163C134.721 41.4576 136.967 83.8531 135.466 85.9429C133.891 88.1479 102.843 92.7584 100.968 90.4382C99.3014 88.376 96.4238 48.5566 111.114 39.1075" fill="#FED385"/>
<path d="M110.185 26.7137C110.094 26.5017 110.009 26.2852 109.929 26.064" stroke="black" stroke-width="2.5" stroke-linecap="round" stroke-linejoin="round"/>
<path d="M29.8462 214.73L113.063 115.594" stroke="#DFDFDF" stroke-width="6.84" stroke-miterlimit="10" stroke-linecap="round"/>
<path d="M121.566 71.1967C121.066 79.9246 118.569 113.899 116.828 117.011C114.898 120.484 109.781 124.154 108.912 124.154C108.043 124.154 104.473 119.525 104.473 118.078C104.473 116.631 109.396 111.134 109.588 109.396C109.756 107.894 108.622 80.6204 108.502 71.8556" fill="#D37C59"/>
<path d="M116.074 44.9899C127.423 44.9899 125.846 69.2451 123.955 70.5031C122.064 71.7612 107.247 72.7082 105.672 71.1345C104.097 69.5608 104.725 44.9899 116.074 44.9899Z" fill="#FED892"/>
<path d="M12.1763 192.485L43.8811 154.675C44.4167 154.036 45.0729 153.509 45.8123 153.124C46.5518 152.738 47.3599 152.503 48.1906 152.429C49.0213 152.356 49.8583 152.447 50.6538 152.697C51.4493 152.947 52.1877 153.351 52.8269 153.886L69.2529 167.64L29.3913 215.177L12.9653 201.424C11.6744 200.343 10.866 198.794 10.7181 197.118C10.5701 195.441 11.0947 193.775 12.1763 192.485Z" fill="#DFDFDF"/>
<path d="M39.1455 214.44C41.3511 214.44 43.1392 212.653 43.1392 210.449C43.1392 208.245 41.3511 206.459 39.1455 206.459C36.9399 206.459 35.1519 208.245 35.1519 210.449C35.1519 212.653 36.9399 214.44 39.1455 214.44Z" stroke="#DFDFDF" stroke-width="5.71" stroke-linecap="round" stroke-linejoin="round"/>
<path d="M111.107 28.5293V40.3517C111.107 41.7019 114.734 42.0313 117.39 41.6558C118.352 41.3562 120.136 41.3562 120.136 40.7111V30.9924L112.659 28.11L111.748 27.8588" fill="#D37C59"/>
<path d="M117.716 33.1491C122.817 33.1491 126.953 27.0865 126.953 19.6079C126.953 12.1293 122.817 6.06671 117.716 6.06671C112.614 6.06671 108.479 12.1293 108.479 19.6079C108.479 27.0865 112.614 33.1491 117.716 33.1491Z" fill="#DE8E68"/>
<path d="M115.557 0C111.084 0 100.57 5.24182 94.2956 5.24182C89.5618 5.24182 83.1863 0.283404 77.8068 0.283404C67.7697 0.283404 65.8997 12.8891 65.8997 15.8176C65.8997 25.0179 72.0423 27.2414 74.0737 27.2414C78.0374 27.2414 87.4981 23.9834 92.3126 23.9834C97.6505 23.9834 103.482 27.2414 106.816 27.2414C109.68 27.2414 110.967 26.2045 111.248 25.9695C111.335 25.8958 111.315 25.3935 111.276 24.7276C111.143 24.747 111.01 24.757 110.877 24.7575C110.38 24.756 109.892 24.6357 109.451 24.4068C109.011 24.1779 108.632 23.8469 108.346 23.4416C108.06 23.0364 107.875 22.5685 107.807 22.0773C107.739 21.586 107.79 21.0856 107.955 20.618C108.12 20.1503 108.395 19.729 108.757 19.3892C109.118 19.0494 109.556 18.8011 110.033 18.665C110.51 18.5289 111.013 18.5089 111.5 18.6068C111.986 18.7047 112.442 18.9176 112.83 19.2277C114.704 17.8683 118.364 16.9075 119.406 16.2738C122.154 14.6126 124.868 12.4329 124.988 11.8661C125.352 12.456 125.788 13.1311 126.425 15.0803C127.718 14.5343 129.401 12.9536 129.401 8.29936C129.401 0.970026 118.015 0 115.557 0Z" fill="black"/>
<path d="M112.281 24.6538C111.878 24.8268 111.444 24.9154 111.006 24.9142C110.475 24.9146 109.951 24.7852 109.481 24.5373C109.012 24.2893 108.61 23.9303 108.311 23.4915C108.011 23.0528 107.824 22.5475 107.765 22.0199C107.706 21.4923 107.777 20.9583 107.972 20.4644C108.167 19.9704 108.48 19.5317 108.883 19.1862C109.287 18.8408 109.769 18.5992 110.287 18.4825C110.805 18.3658 111.344 18.3775 111.857 18.5166C112.37 18.6557 112.841 18.918 113.229 19.2807" fill="#DE8E68"/>
</svg>
