<svg width="226" height="238" viewBox="0 0 226 238" fill="none" xmlns="http://www.w3.org/2000/svg">
<g clip-path="url(#clip0)">
<path d="M194.441 40.1393C215.79 67.4195 223.49 104.861 215.506 138.397C207.522 171.933 183.86 201.474 156.986 208.059C130.112 214.643 100.021 198.276 77.4876 181.626C54.963 164.926 39.9425 147.994 35.3129 128.475C30.6833 108.956 36.4945 86.8947 49.5291 61.5394C62.5637 36.184 82.8872 7.4011 110.509 1.62031C138.14 -4.21636 173.091 12.859 194.441 40.1393Z" fill="white"/>
<path fill-rule="evenodd" clip-rule="evenodd" d="M121.523 42.8558C121.583 46.007 122.905 51.2755 122.964 55.1718C123.023 59.0681 120.317 63.132 119.513 65.0786C118.708 67.0252 123.076 73.3276 123.076 73.3276L132.912 67.8449L132.497 50.6453C132.497 50.6453 121.467 39.7046 121.523 42.8558Z" fill="black"/>
<path fill-rule="evenodd" clip-rule="evenodd" d="M127.525 56.5409C133.903 60.6545 125.654 76.2273 121.951 79.0307C118.247 81.8342 108.292 75.0817 108.155 71.6138C108.018 68.146 121.146 52.4304 127.525 56.5409Z" fill="#FFC78E"/>
<path fill-rule="evenodd" clip-rule="evenodd" d="M13.6394 54.2994L0 140.102L43.1754 146.907L51.1066 141.194L56.8803 149.068L212.364 173.576L226 87.7733L70.95 63.3338L62.5169 69.3971L56.3815 61.0147L13.6394 54.2994Z" fill="#E0E0E0"/>
<path d="M51.0411 141.61L62.5762 69.0526" stroke="#F3F3F3" stroke-width="4.41" stroke-linejoin="round"/>
<path fill-rule="evenodd" clip-rule="evenodd" d="M32.239 106.91L38.7422 107.935L34.2716 136.066L27.7683 135.041L32.239 106.91Z" fill="#F3F3F3"/>
<path fill-rule="evenodd" clip-rule="evenodd" d="M35.4407 86.783L41.9409 87.8075L39.6588 102.166L33.1586 101.142L35.4407 86.783Z" fill="#F3F3F3"/>
<path fill-rule="evenodd" clip-rule="evenodd" d="M77.4471 81.2102L198.989 100.369L197.842 107.584L76.2998 88.4253L77.4471 81.2102Z" fill="#F3F3F3"/>
<path d="M76.2967 99.4094L174.479 114.886" stroke="#F3F3F3" stroke-width="4.41" stroke-linecap="round" stroke-linejoin="round"/>
<path d="M74.6911 109.832L144.784 120.881" stroke="#F3F3F3" stroke-width="4.41" stroke-linecap="round" stroke-linejoin="round"/>
<path d="M73.4534 120.139L184.044 137.571" stroke="#F3F3F3" stroke-width="4.41" stroke-linecap="round" stroke-linejoin="round"/>
<path fill-rule="evenodd" clip-rule="evenodd" d="M130.412 17.991C142.022 17.991 146.293 27.9971 146.474 34.4672C146.474 38.4193 145.332 42.2535 146.162 45.2495C146.099 52.6757 154.161 59.7449 154.161 71.2444C154.161 91.7349 138.159 89.158 129.919 89.4561C121.679 89.7541 128.407 70.4558 128.529 66.7396C128.65 63.0234 128.806 54.6316 129.046 51.1607C129.286 47.6897 119.453 40.636 119.572 37.5811C119.69 34.5261 113.932 18.5312 130.412 17.991Z" fill="black"/>
<path fill-rule="evenodd" clip-rule="evenodd" d="M185.085 211.03L190.335 214.575L195.086 209.257L190.35 204.529L185.085 211.03Z" fill="#E49D75"/>
<path fill-rule="evenodd" clip-rule="evenodd" d="M92.6765 222.091L90.4443 227.487L96.8384 230.545L99.3762 225.451L92.6765 222.091Z" fill="#E49D75"/>
<path fill-rule="evenodd" clip-rule="evenodd" d="M150.324 105.013C153.098 107.646 154.532 148.478 154.14 156.665C156.219 161.269 190.927 204.594 190.927 204.594L185.135 211.852C185.135 211.852 137.788 175.839 135.253 171.728C132.719 167.618 105.845 128.748 150.324 105.013Z" fill="#5FC5D1"/>
<path fill-rule="evenodd" clip-rule="evenodd" d="M118.951 112.551C116.719 118.739 107.784 153.945 106.229 163.908C104.673 173.87 92.1465 222.228 92.1465 222.228L99.3325 226.099C99.3325 226.099 155.446 126.646 149.956 108.462C144.466 90.2788 121.187 106.367 118.951 112.551Z" fill="#6BD5E1"/>
<path fill-rule="evenodd" clip-rule="evenodd" d="M118.082 34.9825C118.64 27.1092 124.108 21.0801 130.293 21.5147C136.479 21.9494 141.043 28.6864 140.485 36.5597C139.927 44.433 134.458 50.459 128.27 50.0275C122.082 49.5959 117.533 42.8558 118.082 34.9825Z" fill="#E49D75"/>
<path fill-rule="evenodd" clip-rule="evenodd" d="M131.101 54.4267C148.759 50.2044 154.685 97.5808 151.175 108.698C148.032 116.736 126.403 119.683 117.898 115.631C114.634 113.054 106.868 60.2199 131.101 54.4267Z" fill="#FFD98E"/>
<path fill-rule="evenodd" clip-rule="evenodd" d="M133.744 82.6228C134.449 87.0376 135.715 101.561 135.927 104.976C136.139 108.391 131.843 128.261 130.365 130.986C131.843 133.017 136.207 136.665 136.207 136.665C136.207 136.665 144.375 120.002 147.565 106.652C148.572 102.44 145.429 82.331 144.865 80.7197C144.301 79.1084 133.037 78.2049 133.744 82.6228Z" fill="#E49D75"/>
<path fill-rule="evenodd" clip-rule="evenodd" d="M97.5804 229.614L94.282 237.475L72.5306 228.949L73.9398 225.311L90.3227 226.317L97.5804 229.614Z" fill="black"/>
<path fill-rule="evenodd" clip-rule="evenodd" d="M194.537 208.208L201.293 213.429L187.367 232.116L184.209 229.812L189.459 214.327L194.537 208.208Z" fill="black"/>
<path fill-rule="evenodd" clip-rule="evenodd" d="M123.796 21.9462C123.855 25.2402 125.922 33.958 137.03 38.4783C143.948 41.2942 143.406 38.4783 143.406 38.4783L139.316 23.1384L133.18 19.5495C133.18 19.5495 123.737 18.6522 123.796 21.9462Z" fill="black"/>
<path fill-rule="evenodd" clip-rule="evenodd" d="M134.165 38.8509C134.165 38.2479 134.345 37.6584 134.681 37.1571C135.018 36.6557 135.496 36.2649 136.055 36.0342C136.615 35.8034 137.23 35.7431 137.824 35.8607C138.418 35.9783 138.963 36.2687 139.392 36.6951C139.82 37.1214 140.111 37.6647 140.229 38.2561C140.348 38.8475 140.287 39.4605 140.055 40.0175C139.823 40.5746 139.431 41.0508 138.928 41.3858C138.424 41.7208 137.832 41.8996 137.227 41.8996C136.415 41.8996 135.636 41.5784 135.062 41.0066C134.488 40.4349 134.165 39.6594 134.165 38.8509Z" fill="#E49D75"/>
<path fill-rule="evenodd" clip-rule="evenodd" d="M136.014 59.6052C143.534 58.5031 147.661 75.6219 146.739 80.1639C144.051 83.2872 136.684 84.4173 131.462 83.6597C129.068 81.145 128.498 60.7042 136.014 59.6052Z" fill="#FFE4AD"/>
<path fill-rule="evenodd" clip-rule="evenodd" d="M127.263 43.4674H136.616V56.7583C135.172 58.0374 129.944 59.3258 127.263 56.5999V43.4674Z" fill="#E49D75"/>
<path d="M28.0612 78.6292L26.5829 87.8509L52.1646 91.9177L51.5613 95.6812L25.9796 91.6144L24.5045 100.816L21.3905 100.321L24.9472 78.1341L28.0612 78.6292ZM87.9862 85.8521C90.798 86.2991 93.1791 87.1626 95.1298 88.4426C97.0673 89.7205 98.4489 91.3142 99.2746 93.2236C100.1 95.1331 100.328 97.2438 99.9572 99.5558C99.595 101.815 98.722 103.731 97.3383 105.302C95.9414 106.872 94.1402 107.98 91.9347 108.626C89.7181 109.257 87.2544 109.371 84.5436 108.967L82.4742 108.638C79.715 108.199 77.3545 107.332 75.3929 106.037C73.4312 104.742 72.032 103.132 71.1953 101.207C70.3475 99.2672 70.1047 97.1675 70.4669 94.9081C70.8354 92.6092 71.7181 90.675 73.115 89.1054C74.5009 87.5206 76.3273 86.4234 78.5943 85.8139C80.8482 85.2023 83.3744 85.1189 86.173 85.5638L87.9862 85.8521ZM85.5303 89.3211C82.1273 88.7801 79.4097 89.0486 77.3775 90.1265C75.3321 91.2024 74.1126 92.9685 73.7188 95.425C73.3355 97.8158 73.9465 99.8461 75.5517 101.516C77.1459 103.17 79.556 104.274 82.7818 104.827L84.8907 105.162C88.1886 105.687 90.8941 105.41 93.0072 104.331C95.1093 103.237 96.3551 101.475 96.7447 99.0451C97.1364 96.6017 96.5527 94.5691 94.9938 92.9472C93.4217 91.3233 90.9767 90.2273 87.6588 89.6595L85.5303 89.3211ZM148.809 95.5415L148.2 99.3445L123.771 110.272L145.884 113.788L145.275 117.591L116.579 113.029L117.189 109.226L141.722 98.2742L119.51 94.7432L120.114 90.9797L148.809 95.5415ZM182.015 106.801L180.022 119.235L190.192 120.852L192.507 106.408L195.601 106.9L192.679 125.127L163.984 120.565L166.874 102.535L169.988 103.03L167.704 117.277L176.928 118.743L178.921 106.31L182.015 106.801Z" fill="#F3F3F3"/>
</g>
<defs>
<clipPath id="clip0">
<rect width="226" height="237" fill="white" transform="translate(0 0.474731)"/>
</clipPath>
</defs>
</svg>
