<svg width="154" height="138" viewBox="0 0 154 138" fill="none" xmlns="http://www.w3.org/2000/svg">
<path d="M153.674 43.0022L139.201 14.8513V3.68694C139.201 2.04759 137.855 0.718178 136.193 0.718178H17.8057C16.1448 0.718178 14.7979 2.04759 14.7979 3.68694V14.8527L0.325447 43.0022C0.11159 43.4185 0 43.8789 0 44.3456V51.6491C0 60.3273 6.40787 67.5521 14.7979 68.9679V131.343H11.72C10.0588 131.343 8.71216 132.673 8.71216 134.312C8.71216 135.951 10.0588 137.281 11.72 137.281H17.7826C17.7901 137.281 17.7979 137.282 17.8057 137.282H100.1H124.163H136.194H142.28C143.941 137.282 145.288 135.952 145.288 134.313C145.288 132.674 143.941 131.344 142.28 131.344H139.202V68.9679C147.592 67.5521 154 60.3276 154 51.6491V44.3456C154 43.8789 153.888 43.4185 153.674 43.0022ZM20.8135 6.6557H133.186V12.5941H112.517H88.8388H65.1615H41.4833H20.8135V6.6557ZM94.7907 44.0458L92.1676 18.5316H110.288L118.388 44.7874V51.6491C118.388 58.0657 113.098 63.286 106.597 63.286C100.096 63.286 94.806 58.0657 94.806 51.6491V44.3456C94.806 44.2456 94.8009 44.1455 94.7907 44.0458ZM88.7904 44.4958V51.6491H88.7901C88.7901 58.0657 83.5011 63.286 77.0003 63.286C70.4989 63.286 65.2093 58.0657 65.2093 51.6491V44.4958L67.8797 18.5316H86.1209L88.7904 44.4958ZM61.8334 18.5319L59.2093 44.0461C59.1988 44.1455 59.1937 44.2456 59.1937 44.3456V51.6491C59.1937 58.0657 53.9047 63.286 47.4033 63.286C40.9019 63.286 35.6129 58.0657 35.6129 51.6491V44.7877L43.7124 18.5319H61.8334ZM6.01565 51.6491V45.0557L19.6525 18.5316H37.4237L29.7275 43.4808C29.6412 43.7611 29.597 44.0526 29.597 44.3456V51.6491C29.597 58.0657 24.3074 63.286 17.8057 63.286C11.3046 63.286 6.01565 58.0657 6.01565 51.6491ZM121.155 131.344H103.108V122.437V110.562H106.116C107.777 110.562 109.124 109.233 109.124 107.594C109.124 105.954 107.777 104.625 106.116 104.625H103.108V83.8441H121.155V131.344ZM133.186 131.344H127.17V80.8753C127.17 79.236 125.823 77.9066 124.162 77.9066H100.099H29.8373C28.1758 77.9066 26.8295 79.236 26.8295 80.8753V122.437C26.8295 124.077 28.1758 125.406 29.8373 125.406H97.092V131.344H20.8135V68.9679C25.7145 68.1411 29.939 65.3348 32.6048 61.4109C35.8027 66.1179 41.2418 69.2235 47.403 69.2235C53.5642 69.2235 59.003 66.1179 62.2012 61.4109C65.3994 66.1179 70.8388 69.2235 77 69.2235C83.1606 69.2235 88.6 66.1182 91.7976 61.4109C94.9958 66.1182 100.435 69.2235 106.596 69.2235C112.758 69.2235 118.197 66.1179 121.395 61.4109C124.06 65.3348 128.285 68.1411 133.186 68.9679V131.344ZM62.1808 83.8441H72.66L66.9406 89.4883C65.7661 90.6473 65.7661 92.5271 66.9403 93.6867C67.5278 94.2665 68.2975 94.5566 69.0675 94.5566C69.8372 94.5566 70.6066 94.2665 71.194 93.687L81.1676 83.8441H97.0917V119.469H32.8451V112.799L62.1808 83.8441ZM32.8451 104.402V83.8441H53.6731L32.8451 104.402ZM147.984 51.6491C147.984 58.0657 142.695 63.286 136.194 63.286C129.693 63.286 124.403 58.0657 124.403 51.6491V44.3456C124.403 44.0526 124.359 43.7611 124.273 43.4808L116.577 18.5316H134.347L147.984 45.0557V51.6491Z" fill="#096B00"/>
</svg>
