<svg width="139" height="147" viewBox="0 0 139 147" fill="none" xmlns="http://www.w3.org/2000/svg">
<path d="M137.18 32.435L70.4363 0.213895C69.8445 -0.0714916 69.1555 -0.0714916 68.564 0.213895L1.81999 32.435C1.07581 32.7942 0.602936 33.5479 0.602936 34.3742V112.626C0.602936 113.452 1.07581 114.206 1.81999 114.565L68.5637 146.786C68.8595 146.929 69.1799 147 69.5 147C69.8201 147 70.1403 146.929 70.4363 146.786L137.18 114.565C137.924 114.206 138.397 113.452 138.397 112.626V34.3745C138.397 33.5476 137.924 32.7945 137.18 32.435ZM69.5 4.54437L131.291 34.3742L113.379 43.0213C113.266 42.9349 113.146 42.8551 113.014 42.7916L51.6432 13.1648L69.5 4.54437ZM46.7802 15.5995L108.481 45.386L95.844 51.4868L34.1686 21.7124L46.7802 15.5995ZM109.925 49.471V72.0222L98.1208 77.7208V55.1695L109.925 49.471ZM134.09 111.274L71.6533 141.416V67.9467L86.5465 60.7569C87.6175 60.2399 88.0665 58.9527 87.5494 57.8815C87.0323 56.8109 85.7452 56.3613 84.674 56.8787L69.5 64.2043L63.5293 61.3217C62.4581 60.804 61.171 61.2536 60.6539 62.3246C60.1368 63.3955 60.5858 64.6829 61.6568 65.2L67.3467 67.9467V141.416L4.90958 111.274V37.8048L52.4549 60.7578C52.7566 60.9037 53.0756 60.9726 53.3894 60.9726C54.1899 60.9726 54.9588 60.5241 55.33 59.7549C55.8471 58.684 55.3981 57.3966 54.3271 56.8795L7.70918 34.3742L29.1003 24.0474L93.7843 55.2743C93.7938 55.2875 93.8044 55.2993 93.8141 55.3122V81.1517C93.8141 81.8928 94.1951 82.5816 94.8228 82.9758C95.1713 83.1945 95.569 83.3051 95.9678 83.3051C96.287 83.3051 96.6071 83.2342 96.9037 83.0909L113.014 75.3134C113.758 74.9542 114.231 74.2008 114.231 73.3742V47.3923L134.09 37.8051V111.274Z" fill="#096B00"/>
</svg>
