<svg width="253" height="247" viewBox="0 0 253 247" fill="none" xmlns="http://www.w3.org/2000/svg">
<path fill-rule="evenodd" clip-rule="evenodd" d="M0 2H253V172.675H0V2Z" fill="#F3F3F3"/>
<path d="M143.322 37.4594H172.986" stroke="white" stroke-width="12.98" stroke-linecap="round" stroke-linejoin="round"/>
<path d="M143.322 47.1652H169.735" stroke="white" stroke-width="12.98" stroke-linecap="round" stroke-linejoin="round"/>
<path d="M63.1435 173.044V2.37238" stroke="#DFDFDF" stroke-width="2.93" stroke-linecap="round"/>
<path d="M126.287 173.044V2.37238" stroke="#DFDFDF" stroke-width="2.93" stroke-linecap="round"/>
<path d="M189.43 173.044V2.37238" stroke="#DFDFDF" stroke-width="2.93" stroke-linecap="round"/>
<path fill-rule="evenodd" clip-rule="evenodd" d="M110.574 236.523L111.133 243.086L116.883 243.225L115.816 236.276L110.574 236.523Z" fill="#E49D75"/>
<path fill-rule="evenodd" clip-rule="evenodd" d="M58.1795 224.821L55.5097 233.841L58.2363 236.684L63.0741 228.788L58.1795 224.821Z" fill="#E49D75"/>
<path fill-rule="evenodd" clip-rule="evenodd" d="M110.155 241.611L110.051 246.475L125.123 246.383C125.227 246.453 125.151 243.999 125.151 243.999L116.182 241.541L110.155 241.611Z" fill="black"/>
<path fill-rule="evenodd" clip-rule="evenodd" d="M55.3046 232.297L52.2435 236.475L58.6434 245.546L64.6898 245.587L64.6078 242.524L62.1841 241.45L60.0351 236.115L55.3046 232.297Z" fill="black"/>
<path fill-rule="evenodd" clip-rule="evenodd" d="M115.832 48.2139H145.275V77.6821H115.832V48.2139Z" fill="#E0E0E0"/>
<path fill-rule="evenodd" clip-rule="evenodd" d="M115.832 48.2139H145.275V54.7961H115.832V48.2139Z" fill="#A4A4A4"/>
<path fill-rule="evenodd" clip-rule="evenodd" d="M81.9644 83.2914C83.4981 82.9535 88.9575 83.0987 90.4187 82.3155C91.8798 81.5322 109.915 68.0078 111.729 66.1664C113.544 64.325 115.788 62.7269 117.41 60.7244C119.032 58.722 117.463 64.2713 116.047 65.3642C115.882 66.8486 115.841 69.9565 115.841 69.9565C115.466 69.8905 115.082 69.9045 114.712 69.9975C114.343 70.0906 113.998 70.2607 113.699 70.4966C112.676 71.2989 97.8883 88.7176 97.8883 88.7176C97.8883 88.7176 80.4307 83.6325 81.9644 83.2914Z" fill="#E49D75"/>
<path fill-rule="evenodd" clip-rule="evenodd" d="M68.5682 135.33C67.6531 138.804 65.889 163.124 71.3137 175.29C68.9595 184.187 57.0024 225.651 57.0024 225.651L62.9478 230.894L93.5965 184.465C93.5965 184.465 87.2156 133.675 68.5682 135.33Z" fill="#5FC5D1"/>
<path fill-rule="evenodd" clip-rule="evenodd" d="M99.8607 133.826C101.101 137.278 113.774 182.57 113.774 182.57L116.64 237.587L110.082 238.105L89.7118 182.706C87.225 179.886 71.4273 142.029 70.7173 137.171C73.8225 133.867 98.6205 130.371 99.8607 133.826Z" fill="#6BD5E1"/>
<path fill-rule="evenodd" clip-rule="evenodd" d="M77.0572 81.0963C79.5534 81.0963 93.6912 84.5263 96.3483 90.0536C97.8094 93.092 104.219 130.238 100.659 136.078C97.0994 141.918 72.5729 141.669 67.7888 137.266C65.0969 134.796 64.2291 81.0773 77.0572 81.0963Z" fill="#FFD98E"/>
<path fill-rule="evenodd" clip-rule="evenodd" d="M0 2H253V24.8481H0V2Z" fill="#E0E0E0"/>
<path d="M11.7236 38.2301H50.9938" stroke="white" stroke-width="12.98" stroke-linecap="round" stroke-linejoin="round"/>
<path fill-rule="evenodd" clip-rule="evenodd" d="M73.9267 74.7731H79.342V85.2907C77.3949 86.8414 73.9267 85.2907 73.9267 85.2907V74.7731Z" fill="#E49D75"/>
<path fill-rule="evenodd" clip-rule="evenodd" d="M66.9998 65.2662C66.9998 58.7124 71.4463 53.4 76.9341 53.4C82.422 53.4 86.8653 58.7124 86.8653 65.2662C86.8653 71.8199 82.4188 77.1356 76.9341 77.1356C71.4494 77.1356 66.9998 71.8199 66.9998 65.2662Z" fill="#E49D75"/>
<path fill-rule="evenodd" clip-rule="evenodd" d="M75.7381 51.4481C78.9191 51.3755 82.9616 53.4 82.9616 54.8055C82.9616 57.2375 79.1936 62.7521 76.3882 65.0136C77.174 66.8297 77.8935 68.0299 77.8935 69.5712C77.8935 71.1125 75.4983 77.1514 75.4983 81.2574C75.4983 84.479 76.2178 86.6709 76.2178 89.343C76.2178 96.6421 71.4589 101.061 64.5762 101.061C57.6935 101.061 53.0703 93.591 53.0419 87.5269C53.0072 80.0919 61.2469 70.9672 63.2445 65.361C64.9265 60.6297 68.1106 51.4481 75.7381 51.4481Z" fill="black"/>
<path fill-rule="evenodd" clip-rule="evenodd" d="M73.6364 65.8789C73.6364 65.3865 73.7823 64.9052 74.0557 64.4959C74.3291 64.0865 74.7176 63.7675 75.1722 63.5792C75.6268 63.3909 76.1269 63.3418 76.6094 63.4381C77.0919 63.5344 77.535 63.7718 77.8826 64.1202C78.2303 64.4685 78.4668 64.9123 78.5624 65.3953C78.658 65.8783 78.6083 66.3788 78.4196 66.8336C78.2309 67.2883 77.9117 67.6768 77.5024 67.9499C77.093 68.223 76.6119 68.3684 76.12 68.3678C75.7935 68.3678 75.4703 68.3034 75.1688 68.1783C74.8673 68.0531 74.5934 67.8698 74.3627 67.6386C74.132 67.4075 73.9492 67.1331 73.8245 66.8311C73.6999 66.5292 73.636 66.2056 73.6364 65.8789Z" fill="#E49D75"/>
<path fill-rule="evenodd" clip-rule="evenodd" d="M100.388 101.288C103.177 101.951 114.604 103.869 116.798 103.183C118.991 102.498 141.586 80.932 143.347 79.337C145.108 77.742 148.642 75.4837 149.068 72.7233C149.494 69.9628 149.068 67.6003 145.237 66.2169C145.31 67.9982 145.379 70.7777 145.304 70.3639C144.657 68.2162 144.581 65.781 143.41 65.8095C142.779 67.8182 143.669 71.6052 142.116 74.1414C140.333 76.0807 116.652 91.6328 114.166 92.4192C110.922 92.4192 102.603 89.5766 102.603 89.5766C102.603 89.5766 97.6012 100.625 100.388 101.288Z" fill="#E49D75"/>
<path fill-rule="evenodd" clip-rule="evenodd" d="M81.8414 90.1483C83.7727 82.0311 100.716 86.3234 103.566 88.6007C104.563 91.6928 102.994 100.865 100.504 102.567C96.7649 103.111 79.7838 98.7834 81.8414 90.1483Z" fill="#FFE4AD"/>
<path d="M11.7236 55.5098H41.3877" stroke="white" stroke-width="12.98" stroke-linecap="round" stroke-linejoin="round"/>
<path d="M11.7236 85.1959H27.8022" stroke="white" stroke-width="12.98" stroke-linecap="round" stroke-linejoin="round"/>
<path d="M11.7236 96.3957H41.3877" stroke="white" stroke-width="12.98" stroke-linecap="round" stroke-linejoin="round"/>
<path d="M11.7236 106.102H38.1373" stroke="white" stroke-width="12.98" stroke-linecap="round" stroke-linejoin="round"/>
<path d="M200.331 36.853H239.601" stroke="white" stroke-width="12.98" stroke-linecap="round" stroke-linejoin="round"/>
<path d="M200.331 47.6201H227.786" stroke="white" stroke-width="12.98" stroke-linecap="round" stroke-linejoin="round"/>
<path d="M200.331 59.0757H237.209" stroke="white" stroke-width="12.98" stroke-linecap="round" stroke-linejoin="round"/>
<path d="M200.331 69.4985H218.918" stroke="white" stroke-width="12.98" stroke-linecap="round" stroke-linejoin="round"/>
<path d="M125.283 61.5046H125.246L123.27 62.55L122.973 61.3877L125.441 60.0675H126.741V71.362H125.283V61.5046Z" fill="#A4A4A4"/>
<path d="M138.187 60.0801V61.0876L133.271 71.3746H131.693L136.587 61.3814V61.3466H131.068V60.0832L138.187 60.0801Z" fill="#A4A4A4"/>
</svg>
