<svg width="280" height="233" viewBox="0 0 280 233" fill="none" xmlns="http://www.w3.org/2000/svg">
<g clip-path="url(#clip0)">
<path d="M198.785 18.7917C227.748 25.7779 251.566 56.3825 251.197 86.5578C250.835 116.668 226.282 146.348 205.736 174.911C185.249 203.478 168.885 230.947 148.173 232.402C127.436 233.836 102.383 209.227 81.6529 192.904C60.8577 176.585 44.4323 168.544 30.2841 154.2C16.1358 139.857 4.32266 119.204 7.08859 100.712C9.85453 82.2206 27.2068 65.9012 45.3555 56.9975C63.5658 48.0318 82.5109 46.4854 109.073 37.3961C135.636 28.3068 169.794 11.7546 198.785 18.7917Z" fill="white"/>
<path d="M184.126 158.443L146.261 83.3085C145.106 82.6317 140.469 79.6371 140.469 79.6371" stroke="#DFDFDF" stroke-width="5" stroke-linecap="round" stroke-linejoin="round"/>
<path d="M143.546 89.2577C143.094 87.7549 141.736 84.6584 141.736 84.6584C140.907 84.6075 135.136 81.6238 135.136 81.6238" stroke="#DFDFDF" stroke-width="5" stroke-linecap="round" stroke-linejoin="round"/>
<path d="M133.485 81.9003L151.428 74.543" stroke="#DFDFDF" stroke-width="5" stroke-linecap="round" stroke-linejoin="round"/>
<path d="M4.6123 196.671L0 200.953L11.071 215.544L14.4958 212.499L9.2246 199.516L4.6123 196.671Z" fill="black"/>
<path d="M94.0091 183.353L90.1969 190.412L99.6604 205.221L103.646 204.188L101.033 184.859L94.0091 183.353Z" fill="black"/>
<path d="M137.153 83.3085C140.264 83.3085 142.786 81.4171 142.786 79.084C142.786 76.7509 140.264 74.8596 137.153 74.8596C134.041 74.8596 131.519 76.7509 131.519 79.084C131.519 81.4171 134.041 83.3085 137.153 83.3085Z" fill="#D37C59"/>
<path d="M61.9765 83.545C59.4422 87.1837 3.75067 197.1 3.75067 197.1L10.05 200.964L83.5428 121.03L61.9765 83.545Z" fill="#56CAD8"/>
<path d="M109.957 56.8737C111.405 58.1181 115.648 62.9575 117.034 63.8381C118.421 64.7186 134.325 74.6885 137.308 75.5691C140.291 76.4496 133.952 79.0695 133.952 79.0695C133.952 79.0695 113.233 74.452 111.702 73.4259C110.17 72.3998 101.094 65.057 101.094 63.0885C101.094 61.12 109.957 56.8737 109.957 56.8737Z" fill="#D37C59"/>
<path d="M97.8177 47.4132C102.441 42.3737 111.47 54.3267 111.274 56.0841C111.079 57.8416 104.693 65.2135 100.645 65.2135C99.4324 65.2135 94.5703 50.9536 97.8177 47.4132Z" fill="#FCC486"/>
<path d="M61.2596 84.6511C60.1735 86.1066 55.4671 97.7502 55.4671 101.753C55.4671 129.043 95.9496 136.123 101.764 136.123C100.924 139.933 92.0179 183.204 92.4379 184.154C92.8579 185.103 100.247 187.043 101.764 186.792C107.556 183.622 126.255 139.489 124.851 133.212C122.878 124.418 91.9057 98.6963 87.431 96.1347C82.9562 93.5731 61.2596 84.6511 61.2596 84.6511Z" fill="#74D5DE"/>
<path d="M88.003 36.1334C119.163 36.1334 95.0228 94.9994 89.5416 98.1905C85.9213 100.294 63.4753 92.2959 61.0714 84.2727C60.2496 81.5328 70.7847 36.1334 88.003 36.1334Z" fill="#FED385"/>
<path d="M132.41 85.2988C135.521 85.2988 138.043 83.4074 138.043 81.0743C138.043 78.7412 135.521 76.8499 132.41 76.8499C129.299 76.8499 126.777 78.7412 126.777 81.0743C126.777 83.4074 129.299 85.2988 132.41 85.2988Z" fill="#DE8E68"/>
<path d="M78.058 63.3141C78.134 66.2832 79.1223 79.91 80.3496 80.3211C95.193 85.2988 120.897 83.1047 125.336 82.8063C129.774 82.508 132.62 79.3678 132.399 78.6219C132.178 77.876 118.218 72.156 93.9838 71.4829C93.5349 68.7321 94.6101 60.4177 93.5023 59.6755C92.3945 58.9332 78.058 63.3141 78.058 63.3141Z" fill="#DE8E68"/>
<path d="M82.1815 38.655C95.0735 36.0061 97.3869 60.1958 96.1487 61.9787C94.9106 63.7617 78.4852 66.2832 76.3419 64.7259C74.1987 63.1686 72.4066 40.6599 82.1815 38.655Z" fill="#FED892"/>
<path d="M90.9536 21.0913C90.3598 23.3691 86.3087 36.41 86.5585 37.1013C86.8083 37.7927 92.3836 40.8419 94.5232 40.5071C94.6065 39.5138 95.5152 34.1941 97.376 30.9957C99.2369 27.7973 90.9536 21.0913 90.9536 21.0913Z" fill="#D37C59"/>
<path d="M107.462 21.1566C108.159 14.2193 105.007 8.21803 100.42 7.75242C95.8337 7.2868 91.5505 12.5331 90.8533 19.4704C90.1561 26.4077 93.3089 32.409 97.8953 32.8746C102.482 33.3402 106.765 28.0939 107.462 21.1566Z" fill="#DE8E68"/>
<path d="M90.0521 21.0913C89.1036 20.5673 87.3043 17.4818 87.3043 14.6145C87.3043 10.1281 91.7537 7.57373 94.7549 6.24562C97.0249 5.22316 98.9545 0.474731 104.124 0.474731C108.248 0.474731 108.523 4.64826 110.42 4.80836C115.336 5.21952 118.095 5.4051 118.095 8.99644C118.095 11.6345 114.728 18.8208 107.86 18.8208C107.86 17.489 107.415 14.1815 106.68 12.5914C102.553 12.7988 99.1934 18.1294 93.4697 18.1076C92.2424 18.0858 90.0521 21.0913 90.0521 21.0913Z" fill="#FD8369"/>
<path d="M92.2134 23.3254C93.6171 23.3254 94.7549 21.9293 94.7549 20.2071C94.7549 18.4849 93.6171 17.0888 92.2134 17.0888C90.8098 17.0888 89.672 18.4849 89.672 20.2071C89.672 21.9293 90.8098 23.3254 92.2134 23.3254Z" fill="#DE8E68"/>
<path d="M275.189 186.795H156.905V161.001C163.375 160.426 255.338 151.693 255.338 151.693V95.6108L143.546 89.2577L156.905 161.008" stroke="#DFDFDF" stroke-width="5" stroke-linecap="round" stroke-linejoin="round"/>
<path d="M166.412 201.048C169.443 201.048 171.901 198.578 171.901 195.532C171.901 192.485 169.443 190.015 166.412 190.015C163.381 190.015 160.924 192.485 160.924 195.532C160.924 198.578 163.381 201.048 166.412 201.048Z" stroke="#DFDFDF" stroke-width="5" stroke-linecap="round" stroke-linejoin="round"/>
<path d="M273.606 201.048C276.638 201.048 279.095 198.578 279.095 195.532C279.095 192.485 276.638 190.015 273.606 190.015C270.575 190.015 268.118 192.485 268.118 195.532C268.118 198.578 270.575 201.048 273.606 201.048Z" stroke="#DFDFDF" stroke-width="5" stroke-linecap="round" stroke-linejoin="round"/>
<path d="M147.912 112.701H255.338" stroke="#DFDFDF" stroke-width="5" stroke-linecap="round" stroke-linejoin="round"/>
<path d="M150.881 128.646H255.338" stroke="#DFDFDF" stroke-width="5" stroke-linecap="round" stroke-linejoin="round"/>
<path d="M124.402 85.6226L133.485 81.9003" stroke="#DFDFDF" stroke-width="5" stroke-linecap="round" stroke-linejoin="round"/>
<path d="M159.972 128.646C158.795 125.302 146.312 89.4069 146.312 89.4069" stroke="#DFDFDF" stroke-width="5" stroke-linecap="round" stroke-linejoin="round"/>
</g>
<defs>
<clipPath id="clip0">
<rect width="280" height="232" fill="white" transform="translate(0 0.474731)"/>
</clipPath>
</defs>
</svg>
