<?xml version="1.0" encoding="UTF-8"?>
<svg xmlns="http://www.w3.org/2000/svg" xmlns:xlink="http://www.w3.org/1999/xlink" viewBox="0 0 100 100" width="100px" height="100px">
<g id="surface17105306">
<path style=" stroke:none;fill-rule:nonzero;fill:rgb(18.039216%,80.000001%,44.313726%);fill-opacity:1;" d="M 50 14 C 30.128906 14 14 30.128906 14 50 C 14 69.871094 30.128906 86 50 86 C 69.871094 86 86 69.871094 86 50 C 86 30.128906 69.871094 14 50 14 Z M 50 16 C 68.789062 16 84 31.210938 84 50 C 84 68.789062 68.789062 84 50 84 C 31.210938 84 16 68.789062 16 50 C 16 31.210938 31.210938 16 50 16 Z M 50 19 C 32.886719 19 19 32.886719 19 50 C 19 67.113281 32.886719 81 50 81 C 67.113281 81 81 67.113281 81 50 C 81 40.90625 77.078125 32.71875 70.835938 27.046875 C 70.703125 26.921875 70.515625 26.875 70.339844 26.929688 C 70.167969 26.984375 70.035156 27.128906 70 27.304688 C 69.960938 27.484375 70.027344 27.667969 70.164062 27.789062 C 76.207031 33.273438 80 41.191406 80 50 C 80 66.574219 66.574219 80 50 80 C 33.425781 80 20 66.574219 20 50 C 20 33.425781 33.425781 20 50 20 C 53.628906 20 57.109375 20.644531 60.328125 21.828125 C 60.496094 21.886719 60.683594 21.855469 60.820312 21.738281 C 60.957031 21.625 61.023438 21.445312 60.992188 21.269531 C 60.960938 21.09375 60.839844 20.949219 60.671875 20.886719 C 57.34375 19.667969 53.75 19 50 19 Z M 63.480469 22.140625 C 63.25 22.144531 63.050781 22.308594 63.003906 22.535156 C 62.957031 22.761719 63.070312 22.992188 63.277344 23.089844 C 63.945312 23.421875 64.605469 23.78125 65.246094 24.15625 C 65.398438 24.253906 65.59375 24.257812 65.753906 24.167969 C 65.910156 24.082031 66.007812 23.914062 66.007812 23.734375 C 66.007812 23.554688 65.910156 23.386719 65.753906 23.296875 C 65.089844 22.90625 64.414062 22.539062 63.722656 22.195312 C 63.648438 22.15625 63.566406 22.136719 63.480469 22.140625 Z M 67.507812 24.511719 C 67.492188 24.511719 67.472656 24.511719 67.457031 24.515625 C 67.246094 24.53125 67.066406 24.675781 67.011719 24.882812 C 66.957031 25.089844 67.035156 25.304688 67.214844 25.425781 C 67.546875 25.660156 67.875 25.898438 68.195312 26.144531 C 68.335938 26.253906 68.527344 26.28125 68.691406 26.210938 C 68.855469 26.144531 68.972656 25.992188 68.996094 25.8125 C 69.019531 25.636719 68.945312 25.460938 68.804688 25.351562 C 68.472656 25.097656 68.128906 24.847656 67.785156 24.605469 C 67.707031 24.546875 67.609375 24.515625 67.507812 24.511719 Z M 66.570312 38.003906 C 65.929688 37.984375 65.28125 38.210938 64.785156 38.679688 C 64.777344 38.683594 64.773438 38.6875 64.769531 38.691406 L 47.476562 56.066406 L 37.203125 45.667969 C 37.195312 45.660156 37.1875 45.65625 37.183594 45.652344 C 36.164062 44.722656 34.574219 44.800781 33.652344 45.816406 C 33.652344 45.816406 33.652344 45.816406 33.652344 45.820312 C 32.726562 46.835938 32.800781 48.425781 33.820312 49.351562 L 45.800781 61.332031 C 45.804688 61.335938 45.8125 61.34375 45.816406 61.347656 C 46.292969 61.78125 46.898438 62 47.5 62 C 48.117188 62 48.738281 61.769531 49.21875 61.316406 C 49.21875 61.3125 49.222656 61.308594 49.226562 61.308594 L 68.214844 42.316406 C 69.214844 41.371094 69.261719 39.78125 68.316406 38.785156 C 67.84375 38.28125 67.210938 38.019531 66.570312 38.003906 Z M 66.542969 38.996094 C 66.921875 39.007812 67.300781 39.164062 67.589844 39.46875 C 68.164062 40.074219 68.136719 41.015625 67.527344 41.589844 C 67.523438 41.59375 67.519531 41.597656 67.515625 41.601562 L 48.527344 60.589844 C 48.238281 60.863281 47.871094 61 47.5 61 C 47.140625 61 46.78125 60.871094 46.492188 60.609375 C 46.492188 60.609375 46.492188 60.609375 46.488281 60.609375 L 34.507812 48.625 C 34.503906 48.621094 34.496094 48.613281 34.488281 48.609375 C 33.875 48.050781 33.828125 47.105469 34.390625 46.488281 C 34.953125 45.875 35.890625 45.828125 36.507812 46.390625 L 47.117188 57.125 C 47.210938 57.21875 47.339844 57.273438 47.472656 57.273438 C 47.605469 57.273438 47.734375 57.21875 47.828125 57.125 L 65.472656 39.40625 C 65.773438 39.121094 66.160156 38.984375 66.542969 38.996094 Z M 66.542969 38.996094 "/>
</g>
</svg>
