<?xml version="1.0" encoding="UTF-8"?>
<svg xmlns="http://www.w3.org/2000/svg" xmlns:xlink="http://www.w3.org/1999/xlink" viewBox="0 0 100 100" width="100px" height="100px">
<g id="surface17257121">
<path style=" stroke:none;fill-rule:nonzero;fill:rgb(3.529412%,41.960785%,0%);fill-opacity:1;" d="M 29.960938 17.304688 C 22.792969 17.304688 16.960938 23.136719 16.960938 30.304688 L 16.960938 69.304688 C 16.960938 76.476562 22.792969 82.304688 29.960938 82.304688 L 68.960938 82.304688 C 76.128906 82.304688 81.960938 76.476562 81.960938 69.304688 L 81.960938 44.304688 C 81.960938 43.753906 81.511719 43.304688 80.960938 43.304688 C 80.410156 43.304688 79.960938 43.753906 79.960938 44.304688 L 79.960938 69.304688 C 79.960938 75.371094 75.027344 80.304688 68.960938 80.304688 L 29.960938 80.304688 C 23.894531 80.304688 18.960938 75.371094 18.960938 69.304688 L 18.960938 30.304688 C 18.960938 24.242188 23.894531 19.304688 29.960938 19.304688 L 68.960938 19.304688 C 75.027344 19.304688 79.960938 24.242188 79.960938 30.304688 C 79.960938 30.859375 80.410156 31.304688 80.960938 31.304688 C 81.511719 31.304688 81.960938 30.859375 81.960938 30.304688 C 81.960938 23.136719 76.128906 17.304688 68.960938 17.304688 Z M 32.796875 22.304688 C 26.824219 22.304688 21.960938 27.167969 21.960938 33.144531 L 21.960938 66.472656 C 21.960938 72.445312 26.824219 77.304688 32.796875 77.304688 L 66.121094 77.304688 C 72.097656 77.304688 76.960938 72.445312 76.960938 66.472656 L 76.960938 62.804688 C 76.960938 62.53125 76.738281 62.304688 76.460938 62.304688 C 76.183594 62.304688 75.960938 62.53125 75.960938 62.804688 L 75.960938 66.472656 C 75.960938 71.894531 71.546875 76.304688 66.121094 76.304688 L 32.796875 76.304688 C 27.375 76.304688 22.960938 71.894531 22.960938 66.472656 L 22.960938 33.144531 C 22.960938 27.71875 27.375 23.304688 32.796875 23.304688 L 66.460938 23.304688 C 66.738281 23.304688 66.960938 23.082031 66.960938 22.804688 C 66.960938 22.53125 66.738281 22.304688 66.460938 22.304688 Z M 84.253906 30.414062 C 83.617188 30.414062 83.023438 30.660156 82.578125 31.113281 L 49.453125 63.953125 L 39.75 53.644531 C 39.292969 53.175781 38.699219 52.929688 38.0625 52.929688 C 37.429688 52.929688 36.835938 53.175781 36.390625 53.628906 C 35.480469 54.550781 35.480469 56.050781 36.390625 56.976562 L 47.898438 68.648438 C 48.332031 69.085938 48.914062 69.324219 49.542969 69.324219 C 49.605469 69.324219 49.667969 69.324219 49.726562 69.320312 C 49.804688 69.335938 49.894531 69.347656 50 69.347656 C 50.164062 69.347656 50.292969 69.316406 50.367188 69.296875 C 50.492188 69.277344 50.628906 69.246094 50.757812 69.207031 C 50.878906 69.160156 50.960938 69.128906 51.042969 69.085938 C 51.277344 68.976562 51.492188 68.828125 51.667969 68.648438 L 85.914062 34.464844 C 86.832031 33.535156 86.832031 32.03125 85.921875 31.109375 C 85.476562 30.660156 84.886719 30.414062 84.25 30.414062 Z M 84.253906 31.414062 C 84.601562 31.414062 84.945312 31.546875 85.210938 31.8125 C 85.738281 32.347656 85.738281 33.222656 85.210938 33.757812 L 50.957031 67.949219 C 50.847656 68.058594 50.726562 68.132812 50.59375 68.195312 C 50.546875 68.21875 50.496094 68.238281 50.449219 68.257812 C 50.363281 68.285156 50.277344 68.300781 50.1875 68.308594 C 50.125 68.320312 50.066406 68.351562 50 68.351562 C 49.929688 68.351562 49.867188 68.320312 49.800781 68.308594 C 49.796875 68.308594 49.789062 68.308594 49.785156 68.304688 C 49.707031 68.320312 49.625 68.324219 49.542969 68.324219 C 49.203125 68.324219 48.867188 68.207031 48.613281 67.945312 L 37.105469 56.273438 C 36.578125 55.742188 36.578125 54.863281 37.105469 54.328125 C 37.367188 54.0625 37.714844 53.929688 38.0625 53.929688 C 38.410156 53.929688 38.757812 54.0625 39.019531 54.328125 L 49.429688 65.382812 L 83.292969 31.8125 C 83.558594 31.542969 83.902344 31.410156 84.25 31.410156 Z M 76.460938 52.304688 C 76.183594 52.304688 75.960938 52.53125 75.960938 52.804688 L 75.960938 54.804688 C 75.960938 55.082031 76.183594 55.304688 76.460938 55.304688 C 76.738281 55.304688 76.960938 55.082031 76.960938 54.804688 L 76.960938 52.804688 C 76.960938 52.53125 76.738281 52.304688 76.460938 52.304688 Z M 76.460938 56.304688 C 76.183594 56.304688 75.960938 56.53125 75.960938 56.804688 L 75.960938 60.804688 C 75.960938 61.082031 76.183594 61.304688 76.460938 61.304688 C 76.738281 61.304688 76.960938 61.082031 76.960938 60.804688 L 76.960938 56.804688 C 76.960938 56.53125 76.738281 56.304688 76.460938 56.304688 Z M 76.460938 56.304688 "/>
</g>
</svg>
